<?xml version="1.0" standalone="no"?>
<!DOCTYPE svg PUBLIC "-//W3C//DTD SVG 20010904//EN"
 "http://www.w3.org/TR/2001/REC-SVG-20010904/DTD/svg10.dtd">
<svg version="1.0" xmlns="http://www.w3.org/2000/svg"
 width="407.000000pt" height="318.000000pt" viewBox="0 0 407.000000 318.000000"
 preserveAspectRatio="xMidYMid meet">

<g transform="translate(0.000000,318.000000) scale(0.100000,-0.100000)"
fill="#000000" stroke="none">
<path d="M892 3093 c-26 -9 -73 -42 -117 -84 -82 -76 -131 -104 -285 -161
-168 -63 -222 -92 -277 -151 -60 -63 -91 -120 -100 -182 -19 -144 147 -274
352 -275 l60 0 -3 -95 c-3 -82 12 -262 23 -274 2 -2 35 15 73 37 148 85 285
122 451 122 107 0 169 -10 269 -42 35 -11 66 -18 68 -15 3 3 -4 68 -16 146
-11 78 -18 146 -15 151 3 6 16 10 28 10 79 0 288 87 326 136 51 65 51 153 1
242 -38 64 -80 93 -205 138 -130 46 -128 45 -225 139 -98 95 -145 126 -229
155 -70 23 -119 24 -179 3z m216 -88 c82 -41 189 -141 274 -255 31 -41 73 -91
94 -110 39 -37 37 -27 -6 30 -15 19 -37 52 -49 72 l-22 37 108 -36 c89 -30
115 -43 149 -77 75 -74 82 -172 18 -232 -41 -39 -172 -92 -273 -109 -69 -12
-76 -12 -113 7 l-38 20 72 46 c40 25 100 60 133 78 95 53 35 39 -94 -20 -154
-72 -172 -77 -290 -79 l-100 -3 37 30 c69 54 217 212 240 257 23 44 23 44 1
14 -98 -131 -331 -299 -468 -337 -60 -16 -69 -17 -124 -2 -33 8 -86 28 -117
44 -59 30 -130 99 -130 127 0 9 -3 14 -6 10 -16 -15 22 -80 76 -131 70 -64 64
-71 -45 -57 -153 20 -245 81 -245 164 0 40 50 125 101 171 37 33 80 56 181 96
73 29 156 64 183 78 l50 24 -60 -61 c-33 -34 -77 -73 -98 -88 -57 -40 -37 -38
32 2 77 45 169 131 214 198 66 99 107 125 193 126 40 1 68 -7 122 -34z m147
-710 c56 -28 61 -33 72 -77 6 -26 15 -78 19 -114 l7 -67 -24 7 c-13 4 -51 14
-84 24 -46 13 -99 17 -220 17 -171 0 -221 -9 -352 -61 -53 -22 -67 -24 -74
-13 -23 37 0 53 141 101 112 38 231 58 343 58 50 0 88 2 85 5 -3 3 -59 6 -124
6 -137 0 -249 -19 -371 -62 -47 -17 -87 -28 -90 -26 -2 3 -5 33 -6 67 l-2 62
50 19 c150 58 316 89 460 86 100 -2 115 -5 170 -32z"/>
<path d="M1198 2163 c7 -3 16 -2 19 1 4 3 -2 6 -13 5 -11 0 -14 -3 -6 -6z"/>
<path d="M2159 2887 c-63 -42 -110 -136 -141 -282 -19 -91 -16 -420 6 -514 50
-222 165 -305 294 -211 l39 28 -10 68 c-5 38 -11 71 -13 73 -2 3 -15 -6 -28
-18 -32 -30 -98 -39 -131 -17 -51 34 -80 127 -91 294 -12 178 23 351 83 414
36 38 89 39 133 2 17 -15 32 -25 34 -23 2 2 8 33 13 69 10 60 9 67 -11 88 -50
56 -121 67 -177 29z"/>
<path d="M2470 2375 l0 -515 34 0 34 0 7 230 7 230 100 0 99 0 -3 -227 -3
-228 38 -3 37 -3 0 154 c0 84 3 316 7 515 l6 362 -41 0 -42 0 -2 -207 -3 -208
-97 -3 -98 -3 0 211 0 210 -40 0 -40 0 0 -515z"/>
<path d="M2977 2588 c-4 -166 -7 -397 -7 -515 l0 -213 150 0 150 0 0 75 0 75
-110 0 -110 0 0 160 0 160 95 0 95 0 0 70 0 70 -95 0 -96 0 3 133 3 132 103 3
102 3 0 74 0 75 -138 0 -139 0 -6 -302z"/>
<path d="M3397 2663 c-4 -124 -7 -356 -7 -515 l0 -289 38 3 37 3 3 223 2 222
90 0 90 0 0 75 0 75 -90 0 -90 0 0 140 0 140 105 0 105 0 0 75 0 75 -138 0
-139 0 -6 -227z"/>
<path d="M1410 1839 c-111 -13 -106 -10 -76 -45 24 -30 36 -74 18 -74 -4 0
-16 16 -26 35 -37 68 -44 70 -159 55 -56 -7 -118 -14 -137 -15 -117 -7 -219
-18 -218 -24 0 -3 0 -16 -1 -29 -1 -22 -2 -22 -26 -6 -14 9 -22 21 -18 27 4 7
-9 8 -42 4 -26 -4 -56 -7 -66 -7 -10 0 -21 -9 -24 -20 -7 -23 -25 -27 -25 -5
0 10 -10 15 -29 15 -27 0 -29 -2 -40 -74 -11 -67 -14 -73 -34 -69 -29 5 -250
-110 -277 -144 -27 -34 -26 -42 13 -99 38 -56 79 -152 71 -165 -3 -5 -13 -9
-23 -9 -37 0 -110 -33 -150 -67 -57 -48 -92 -121 -99 -202 l-5 -65 43 37 c50
43 60 45 60 16 0 -64 24 -105 115 -194 75 -74 95 -100 110 -143 9 -30 21 -50
26 -45 4 4 19 37 33 73 l25 65 -6 -56 c-6 -60 8 -119 32 -139 12 -10 24 -1 67
45 29 32 57 68 61 81 16 43 22 25 19 -53 -3 -101 3 -136 33 -172 24 -27 24
-32 13 -80 -13 -60 -7 -72 25 -44 12 11 41 25 64 31 25 8 52 25 68 44 24 28
27 38 22 80 -4 28 -2 50 5 54 5 4 17 22 24 41 12 29 17 33 30 23 12 -11 12
-14 -3 -25 -11 -8 -17 -29 -19 -66 -1 -30 -9 -72 -19 -93 -24 -57 -5 -143 29
-130 7 3 28 -12 46 -32 29 -34 32 -42 27 -88 -2 -28 -8 -60 -13 -70 -7 -19 -6
-19 22 1 82 59 134 136 133 198 0 17 -7 48 -15 70 -8 22 -17 82 -20 134 l-4
94 24 -35 c19 -29 23 -44 19 -80 -4 -37 -1 -49 21 -75 15 -18 47 -38 73 -47
26 -9 57 -26 70 -38 l23 -21 0 24 c0 13 -5 41 -11 63 -9 34 -8 41 11 61 21 22
53 109 44 118 -8 8 -10 137 -2 137 3 0 10 -11 15 -24 4 -13 32 -49 61 -81 43
-46 55 -55 67 -45 24 20 38 79 32 139 l-6 56 25 -65 c14 -36 29 -69 33 -73 5
-5 17 15 26 45 15 43 35 69 110 143 91 89 115 130 115 194 0 29 10 27 60 -16
l43 -37 -5 65 c-7 81 -42 154 -99 202 -40 34 -113 67 -150 67 -10 0 -20 4 -23
9 -8 13 33 109 71 165 39 57 40 65 12 100 -21 26 -224 137 -269 146 -22 5 -26
13 -36 75 -12 71 -8 84 24 85 24 0 103 43 113 61 9 17 6 19 -33 18 -24 -1 -77
-5 -118 -10z m-474 -83 c27 -9 44 -10 55 -3 9 6 35 7 63 3 60 -9 61 -37 2 -47
-21 -3 -43 -14 -48 -23 -8 -14 -13 -15 -24 -5 -8 6 -14 8 -14 3 0 -5 -7 0 -15
10 -13 17 -15 18 -15 3 0 -22 -45 -23 -54 -2 -3 8 -12 15 -20 15 -9 0 -20 9
-26 19 -8 16 -6 22 7 30 24 14 44 13 89 -3z m-173 -32 c10 -10 -12 -44 -28
-44 -21 0 -28 19 -15 35 13 16 32 19 43 9z m-158 -86 c4 -20 0 -51 -10 -77
l-16 -45 26 24 c14 13 25 20 25 15 0 -5 -43 -50 -95 -101 -94 -90 -95 -93 -96
-140 l-1 -49 -10 40 c-5 22 -7 56 -4 75 5 32 5 33 -5 10 -6 -14 -8 -50 -5 -85
l6 -60 -20 30 c-26 40 -34 84 -20 119 10 27 9 28 -6 15 -22 -18 -44 -71 -39
-95 17 -85 14 -88 -20 -19 -19 39 -44 82 -56 97 -21 25 -21 28 -6 52 9 14 52
42 94 63 43 20 95 48 116 60 28 18 37 20 37 9 0 -8 -4 -18 -10 -21 -5 -3 -10
-13 -10 -21 0 -12 6 -11 29 5 36 26 71 80 71 110 0 33 18 25 25 -11z m775 11
c0 -30 35 -84 71 -110 23 -16 29 -17 29 -5 0 8 -4 18 -10 21 -5 3 -10 13 -10
21 0 11 9 9 38 -9 20 -12 72 -40 115 -60 42 -21 85 -49 94 -63 15 -24 15 -27
-6 -52 -12 -15 -37 -58 -56 -97 -34 -69 -37 -66 -20 19 5 24 -17 77 -39 95
-15 13 -16 12 -6 -15 14 -35 6 -79 -20 -119 l-20 -30 6 60 c3 35 1 71 -5 85
-10 23 -10 22 -5 -10 3 -19 1 -53 -4 -75 l-10 -40 -1 49 c-1 47 -2 50 -96 140
-52 51 -95 96 -95 101 0 5 11 -2 25 -15 l26 -24 -16 45 c-10 26 -14 57 -10 77
7 36 25 44 25 11z m-547 -6 c29 -15 30 -17 12 -24 -30 -11 -61 -10 -90 3 -29
13 -32 25 -7 31 34 9 53 7 85 -10z m167 -9 c33 -34 116 -94 129 -94 6 0 11 7
11 16 0 12 7 14 30 9 22 -5 30 -3 30 7 0 12 43 38 64 38 13 0 46 -31 46 -43 0
-9 -35 -5 -75 9 -18 6 -17 4 3 -10 26 -20 29 -58 6 -80 -21 -22 -50 -20 -87 6
l-30 22 22 -31 c16 -21 22 -41 19 -68 l-3 -39 -32 53 c-18 28 -46 59 -63 69
-16 9 -30 20 -30 25 0 14 -18 7 -24 -9 -4 -10 1 -25 10 -35 15 -17 14 -20 -10
-43 -29 -30 -52 -32 -101 -9 -40 19 -43 31 -15 56 11 9 20 21 20 27 0 19 -67
10 -101 -13 -27 -18 -37 -35 -50 -82 -15 -58 -16 -59 -23 -28 -4 17 -5 46 -1
65 6 38 1 47 -40 68 -33 17 -62 67 -48 81 4 4 27 -7 51 -26 36 -28 48 -32 68
-25 20 8 24 6 24 -8 0 -13 5 -11 23 10 13 15 40 32 66 38 23 6 41 13 38 16 -5
5 34 53 43 54 2 0 16 -12 30 -26z m185 6 c-3 -5 -16 -10 -28 -9 -21 0 -21 1
-2 9 28 12 37 12 30 0z m-65 -15 c7 -8 8 -15 2 -15 -5 0 -15 7 -22 15 -7 8 -8
15 -2 15 5 0 15 -7 22 -15z m-260 -197 c0 -18 -44 -68 -61 -68 -15 0 -20 39
-8 62 27 50 69 54 69 6z m-219 -6 c0 -14 2 -13 9 3 8 19 9 19 9 -2 1 -12 4
-29 7 -38 6 -13 9 -14 16 -3 6 8 8 -1 4 -27 l-5 -40 13 35 14 35 7 -28 c11
-41 -2 -91 -35 -133 -38 -47 -44 -70 -38 -152 5 -62 4 -65 -8 -37 -7 17 -13
41 -14 55 l-1 25 -13 -25 c-14 -24 -14 -24 -20 20 -12 90 -13 94 -15 35 -3
-59 -3 -60 -16 -30 -23 50 -18 102 15 161 17 29 36 80 41 113 10 55 28 75 30
33z m453 22 c22 -8 23 -104 2 -104 -21 0 -30 18 -17 34 8 10 6 18 -9 31 -35
32 -21 56 24 39z m237 -59 c6 -31 26 -87 45 -123 38 -71 39 -106 8 -162 -13
-24 -14 -24 -8 15 3 22 1 51 -5 65 -8 22 -10 18 -11 -30 -2 -64 -18 -116 -20
-65 -1 26 -4 23 -21 -24 -10 -30 -20 -55 -22 -57 -1 -2 -1 28 1 66 5 86 0 107
-37 154 -35 43 -45 83 -35 129 l7 32 13 -39 c19 -54 23 -55 17 -5 -4 30 -3 40
5 35 8 -5 12 2 12 19 0 20 4 26 15 21 10 -4 15 1 15 16 0 36 9 14 21 -47z
m-806 -70 c-12 -42 -30 -71 -78 -122 -62 -67 -53 -69 33 -4 l35 26 -22 -31
c-12 -17 -39 -44 -60 -59 -64 -47 -104 -88 -124 -127 -20 -40 -25 -123 -9
-148 7 -11 10 -5 10 23 0 62 26 94 90 113 30 8 74 27 98 40 23 14 42 20 42 14
0 -20 -47 -54 -102 -75 -78 -31 -87 -55 -55 -154 22 -66 25 -85 18 -141 -5
-36 -9 -51 -10 -35 -1 17 -8 44 -15 60 l-14 30 5 -42 5 -41 -80 76 c-88 85
-110 119 -119 190 -5 44 -2 51 31 91 43 51 47 65 9 29 -16 -14 -41 -33 -58
-41 -16 -8 -42 -26 -57 -41 -28 -25 -28 -25 -28 -3 1 57 73 157 138 191 16 8
60 22 98 31 38 9 85 26 105 39 42 28 92 103 111 166 10 34 14 39 16 22 2 -12
-4 -47 -13 -77z m969 -58 c38 -50 80 -73 161 -92 38 -9 81 -23 97 -31 65 -34
137 -134 138 -191 0 -22 0 -22 -27 3 -16 15 -41 33 -58 41 -16 8 -42 27 -57
41 -39 36 -35 22 8 -29 33 -40 36 -47 31 -91 -9 -71 -31 -105 -119 -190 l-80
-76 5 41 5 42 -14 -30 c-7 -16 -14 -43 -15 -60 -1 -16 -5 -1 -10 35 -7 56 -4
75 18 141 32 99 23 123 -55 154 -54 20 -102 55 -102 74 0 5 25 -3 55 -19 31
-16 71 -32 90 -36 49 -9 85 -54 85 -107 0 -31 3 -38 10 -27 16 25 11 108 -9
148 -20 39 -60 80 -124 127 -21 15 -48 42 -60 59 l-22 31 35 -26 c86 -65 95
-63 33 4 -46 49 -66 81 -78 119 -24 82 -18 114 9 42 12 -33 35 -77 50 -97z
m-549 103 c3 -5 19 -10 35 -10 17 0 33 -7 39 -17 10 -17 10 -16 11 2 1 20 1
20 13 0 7 -12 19 -19 28 -17 19 4 48 -52 50 -95 l1 -28 11 28 c22 56 90 1 101
-83 6 -47 -1 -82 -11 -54 -2 6 -10 20 -18 30 -13 16 -13 13 0 -26 l15 -45 -28
30 c-15 17 -42 48 -60 68 -18 21 -48 45 -67 53 -23 9 -41 27 -53 52 -11 24
-25 38 -40 40 -28 4 -52 -14 -52 -38 0 -27 -37 -67 -97 -106 -35 -22 -65 -52
-86 -86 l-32 -52 -3 48 c-4 57 13 142 34 174 14 22 17 22 33 8 16 -14 18 -12
29 30 10 37 15 44 26 35 11 -9 15 -6 21 16 7 26 8 26 15 8 5 -12 9 -14 9 -6 2
36 60 67 76 41z m50 -110 c3 -6 -5 -10 -19 -10 -14 0 -28 5 -31 10 -3 6 5 10
19 10 14 0 28 -4 31 -10z m32 -60 c13 0 35 -12 49 -27 24 -26 26 -34 22 -98
-3 -38 -11 -83 -18 -100 l-12 -30 -10 30 c-6 17 -18 39 -28 50 -10 11 -20 36
-24 55 -3 19 -9 49 -12 65 l-7 30 28 -25 c15 -14 34 -38 41 -55 7 -16 13 -25
14 -18 0 26 -23 70 -58 108 -20 22 -30 34 -22 28 7 -7 25 -13 37 -13z m-62
-108 c-3 -18 -19 -44 -35 -59 -16 -14 -32 -34 -35 -44 -10 -32 -25 -21 -26 19
l-1 37 -13 -40 -12 -40 -13 56 c-16 73 -9 100 36 134 l36 28 -7 -24 c-7 -22
-5 -21 16 6 l24 29 6 -29 6 -30 9 40 9 40 3 -45 c2 -24 1 -59 -3 -78z m-445 8
c-9 -22 -24 -33 -64 -46 -28 -9 -63 -23 -78 -31 -16 -7 -28 -11 -28 -9 0 12
49 50 92 72 26 13 56 36 65 51 15 23 18 24 21 9 2 -10 -2 -31 -8 -46z m999
-14 c25 -13 57 -36 71 -51 l25 -28 -30 15 c-16 9 -53 23 -81 32 -53 17 -74 43
-74 89 1 21 2 21 21 -6 12 -15 42 -38 68 -51z m-733 -53 c-4 -16 -16 -41 -27
-56 l-21 -29 21 11 c11 7 27 24 35 39 19 34 20 22 2 -22 -7 -18 -26 -42 -41
-54 -15 -12 -25 -22 -21 -22 15 0 64 30 70 42 3 7 4 2 3 -11 -4 -42 -47 -64
-139 -71 -46 -3 -94 -12 -107 -19 -20 -11 -22 -11 -16 1 18 31 50 58 80 68 20
7 57 38 95 80 34 39 64 70 67 70 3 0 2 -12 -1 -27z m546 -123 c19 0 65 -35 79
-62 10 -18 9 -19 -13 -7 -13 8 -60 16 -106 19 -92 7 -135 29 -139 71 -1 13 0
18 3 11 6 -12 55 -42 70 -42 4 0 -6 10 -21 22 -15 12 -34 36 -41 54 -18 44
-17 56 2 22 8 -15 24 -32 35 -39 l21 -11 -21 29 c-11 15 -23 42 -26 58 -6 27
1 21 67 -47 41 -43 81 -78 90 -78z m-711 95 l39 -35 -32 -1 c-31 -2 -31 -2 -5
-6 36 -6 34 -18 -4 -32 -40 -14 -99 8 -99 37 0 22 36 72 52 72 6 0 28 -16 49
-35z m363 8 c-4 -16 -11 -36 -16 -45 -5 -10 -6 -18 -3 -18 3 0 15 19 25 43
l20 42 -6 -44 c-4 -31 -3 -41 5 -37 20 12 12 -30 -12 -65 -12 -18 -36 -40 -52
-48 -17 -8 -42 -21 -57 -28 -34 -17 -35 -9 -7 37 18 28 18 32 4 20 -10 -8 -24
-28 -32 -45 -14 -30 -14 -30 -8 14 6 45 26 81 64 115 12 11 21 24 21 29 0 13
40 57 52 57 5 0 5 -12 2 -27z m435 1 c31 -39 27 -63 -13 -79 -26 -11 -41 -12
-65 -4 -38 14 -40 26 -3 32 25 4 25 4 -5 6 l-33 1 38 35 c45 42 54 43 81 9z
m-886 -101 c4 -3 -1 -12 -11 -20 -13 -10 -14 -13 -2 -11 11 2 14 -5 12 -27 -4
-36 -7 -39 -27 -32 -15 6 -20 51 -9 81 6 16 25 21 37 9z m577 -71 c5 -20 10
-50 10 -67 l-1 -30 -20 38 c-24 46 -31 47 -18 5 5 -18 9 -49 9 -68 l0 -35 -19
40 c-10 22 -30 51 -45 64 -34 32 -33 59 6 100 l32 34 18 -22 c9 -13 22 -39 28
-59z m354 62 c11 -30 6 -75 -9 -81 -20 -7 -23 -4 -27 32 -2 22 1 29 12 27 12
-2 11 1 -2 11 -10 8 -15 17 -11 20 12 12 31 7 37 -9z m-826 -78 c-12 -9 -14
-16 -7 -23 13 -13 -33 -48 -93 -68 -24 -9 -49 -23 -55 -32 -11 -15 -13 -13
-13 13 0 40 41 79 110 103 65 23 81 25 58 7z m738 -6 c73 -25 114 -63 114
-104 0 -26 -2 -28 -12 -13 -7 9 -32 23 -56 32 -60 20 -106 55 -93 68 7 7 5 14
-7 23 -23 18 -14 17 54 -6z m-566 -70 c0 -55 -11 -101 -23 -97 -23 7 -47 54
-54 101 -4 36 -3 47 5 42 7 -4 12 -1 13 6 0 7 7 -3 14 -22 l14 -35 -5 45 -5
45 20 -24 c13 -15 21 -37 21 -61z m377 38 l-6 -43 14 35 c7 19 14 29 14 22 1
-7 6 -10 11 -7 13 8 13 -30 0 -76 -10 -36 -45 -77 -56 -66 -3 3 -8 33 -11 66
-4 46 -2 66 11 86 23 36 29 31 23 -17z m-509 -55 c-13 -26 -31 -48 -40 -49
-15 -2 -16 1 -6 19 11 22 11 22 -11 3 -21 -19 -21 -19 -21 0 0 25 94 108 98
88 2 -8 -7 -36 -20 -61z m682 -26 c0 -20 0 -20 -21 -1 -22 19 -22 19 -11 -3
10 -18 9 -21 -6 -19 -18 2 -62 78 -62 109 0 15 10 10 50 -24 29 -25 50 -50 50
-62z m-346 38 c18 -38 14 -55 -25 -106 -15 -19 -33 -47 -40 -62 -7 -15 -15
-27 -18 -27 -16 0 -71 111 -71 142 0 28 31 98 43 98 2 0 2 -24 0 -52 l-3 -53
17 50 17 50 6 -50 6 -50 13 58 c14 64 25 65 55 2z m-430 -40 c4 -12 2 -13 -12
-7 -9 5 -24 12 -32 15 -9 3 -4 6 11 6 15 1 29 -6 33 -14z m149 -49 c4 4 7 -1
7 -10 0 -22 -53 -76 -75 -76 -22 0 -17 32 16 105 l22 50 11 -38 c6 -22 14 -35
19 -31z m555 -3 c26 -61 28 -83 6 -83 -21 0 -74 54 -74 75 0 9 4 14 9 10 6 -3
13 11 17 30 8 42 13 38 42 -32z m132 60 c-8 -3 -23 -10 -32 -15 -14 -6 -16 -5
-12 7 4 8 18 15 33 14 15 0 20 -3 11 -6z m-898 -35 c-7 -7 -12 -23 -12 -37 1
-25 2 -24 21 9 l20 35 -5 -40 -5 -40 13 35 c12 33 13 34 19 10 10 -37 11 -35
-38 -90 l-45 -51 -10 26 c-18 46 -12 91 16 124 14 17 29 31 32 31 3 0 1 -5 -6
-12z m968 -83 c0 -18 -4 -45 -10 -60 l-10 -26 -45 51 c-49 55 -48 53 -38 90 6
24 7 23 19 -10 l13 -35 -5 40 -5 40 20 -35 c19 -33 20 -34 21 -9 0 14 -3 29
-7 35 -5 5 4 -3 20 -18 19 -20 27 -39 27 -63z m-400 29 c0 -33 -30 -84 -59
-98 -29 -15 -30 -15 -24 1 6 16 5 16 -10 4 -22 -17 -22 -2 0 28 9 14 11 21 4
17 -7 -5 -21 -22 -32 -40 -10 -17 -19 -25 -19 -18 0 20 26 65 50 87 12 11 29
33 37 49 l16 30 18 -23 c11 -13 19 -30 19 -37z m-290 2 c0 -3 -5 -17 -10 -33
-10 -27 -9 -27 6 -8 16 19 16 19 12 -14 -5 -31 -4 -32 9 -16 7 11 13 24 13 29
1 6 7 0 14 -14 16 -28 7 -62 -26 -97 -29 -32 -36 -29 -58 20 -24 51 -25 85 -4
115 13 19 44 31 44 18z m404 -18 c21 -30 20 -64 -4 -115 -22 -49 -29 -52 -58
-20 -33 35 -42 69 -26 97 7 14 13 20 14 14 0 -5 6 -18 13 -29 13 -16 14 -15 9
16 -4 33 -4 33 12 14 15 -19 16 -19 6 8 -13 36 -13 37 4 37 8 0 22 -10 30 -22z
m-531 -100 l-3 -43 13 40 c12 38 13 39 21 15 l8 -25 7 25 c6 22 8 23 14 7 24
-62 -7 -173 -40 -146 -40 34 -59 123 -33 154 7 8 13 15 14 15 1 0 0 -19 -1
-42z m639 -20 c0 -37 -21 -86 -45 -107 -33 -27 -64 84 -40 146 6 16 8 15 14
-7 l7 -25 8 25 c8 24 9 23 21 -15 l13 -40 -3 42 c-2 36 0 41 11 29 8 -8 14
-29 14 -48z m-288 -15 c-21 -15 -90 -18 -99 -3 -4 6 7 10 27 10 18 0 44 6 58
13 30 16 41 0 14 -20z m-44 -27 c14 0 34 4 45 9 15 6 17 5 9 -4 -8 -9 -108
-51 -121 -51 -2 0 -3 14 -3 31 0 27 2 30 23 23 12 -5 33 -8 47 -8z m-209 -33
c0 -15 2 -15 9 2 7 17 9 16 9 -10 1 -17 -5 -37 -11 -44 -11 -10 -9 -11 7 -5
20 7 20 7 1 -14 -17 -20 -83 -49 -91 -40 -2 2 9 24 25 48 17 25 30 53 30 63 0
9 5 17 10 17 6 0 10 -8 11 -17z m279 -8 c0 -18 -10 -31 -31 -44 l-32 -19 28
-4 c60 -7 84 -113 43 -191 l-22 -42 -7 35 c-5 27 -7 29 -8 10 -1 -14 -6 -32
-11 -40 -7 -11 -10 -4 -10 27 0 32 -7 50 -35 83 -19 23 -35 53 -35 67 0 13 -4
21 -10 18 -15 -9 -12 2 7 33 15 24 15 25 0 12 -9 -8 -23 -28 -31 -45 -13 -24
-16 -26 -16 -10 0 38 37 81 91 108 68 33 79 33 79 2z m139 8 c1 9 6 17 11 17
6 0 10 -8 10 -17 0 -10 13 -38 30 -63 16 -24 27 -46 25 -48 -8 -9 -74 20 -91
40 -19 21 -19 21 1 14 16 -6 18 -5 8 5 -7 7 -13 27 -12 44 0 26 2 27 9 10 7
-17 9 -17 9 -2z"/>
<path d="M358 1489 c-77 -39 -78 -40 -77 -77 1 -27 3 -30 6 -12 7 34 20 48 72
75 44 22 92 55 81 54 -3 0 -40 -18 -82 -40z"/>
<path d="M1535 1515 c11 -9 41 -27 66 -40 52 -27 65 -41 72 -75 3 -18 5 -15 6
12 1 38 1 38 -81 78 -46 23 -74 33 -63 25z"/>
<path d="M265 1054 c-38 -58 -55 -150 -37 -196 4 -10 7 11 8 45 1 43 9 79 27
120 28 62 29 72 2 31z"/>
<path d="M1696 1025 c19 -42 27 -78 28 -122 1 -34 4 -55 8 -45 19 49 -2 151
-42 202 -16 20 -15 13 6 -35z"/>
<path d="M2179 1433 c-65 -58 -111 -169 -146 -348 -24 -128 -25 -437 -1 -516
77 -248 257 -170 337 147 33 131 44 245 38 418 -5 177 -19 237 -70 301 -24 31
-34 35 -72 35 -38 0 -52 -6 -86 -37z m145 -43 c36 -44 57 -119 63 -236 10
-183 -28 -432 -84 -552 -48 -102 -125 -153 -178 -118 -64 42 -89 133 -88 321
1 355 96 615 223 615 30 0 43 -6 64 -30z"/>
<path d="M2792 1461 c-18 -5 -36 -11 -39 -15 -6 -6 -112 -917 -113 -968 0 -24
6 -29 43 -39 83 -23 162 16 224 110 125 187 166 650 74 829 -36 71 -109 103
-189 83z m128 -70 c92 -64 116 -362 50 -615 -52 -197 -152 -309 -261 -291 -34
6 -39 10 -39 33 0 31 88 835 95 869 8 36 105 39 155 4z"/>
<path d="M3365 1438 c-2 -13 -27 -228 -55 -478 -27 -250 -53 -470 -55 -487 -5
-25 -2 -33 10 -33 8 0 15 9 15 20 0 11 25 239 55 506 64 565 57 494 45 494 -5
0 -12 -10 -15 -22z"/>
<path d="M3672 1358 c-6 -57 -32 -285 -57 -507 -25 -222 -43 -406 -40 -409 3
-3 8 -2 12 1 4 4 30 214 58 467 29 254 55 463 57 465 12 12 120 -673 134 -852
6 -67 10 -83 23 -83 14 0 24 68 70 483 29 265 56 494 58 510 4 19 1 27 -9 27
-11 0 -24 -94 -63 -450 -27 -247 -52 -446 -55 -442 -4 4 -14 72 -24 152 -17
142 -84 556 -109 675 -8 39 -18 61 -28 63 -13 2 -18 -17 -27 -100z"/>
</g>
</svg>
